<?xml version="1.0" encoding="UTF-8"?> <svg xmlns="http://www.w3.org/2000/svg" id="iconsのコピー" viewBox="0 0 512 512"><defs><style>.cls-1{fill:#4b4b4b;}</style></defs><path class="cls-1" d="M256,422.18a13.69,13.69,0,0,1-9.67-4l-141-141A98,98,0,1,1,244,138.54l12,12,12-12A98,98,0,0,1,406.65,277.19l-141,141A13.69,13.69,0,0,1,256,422.18Zm-81.33-285a70.69,70.69,0,0,0-50,120.66L256,389.15,387.31,257.84a70.68,70.68,0,1,0-100-99.95l-21.68,21.67a13.68,13.68,0,0,1-19.34,0l-21.68-21.67A70.23,70.23,0,0,0,174.67,137.18Z"></path></svg> 